<?xml version="1.0" encoding="UTF-8"?><svg id="Layer_1" xmlns="http://www.w3.org/2000/svg" viewBox="0 0 100 100"><defs><style>.cls-1{fill:#6f7c84;}.cls-1,.cls-2{stroke:#333f48;stroke-miterlimit:10;}.cls-2{fill:none;}</style></defs><path class="cls-1" d="m28.13,78c.69.14,1.41.22,2.12.22,5.77,0,10.46-4.79,10.46-10.67,0-3.48-1.68-6.75-4.48-8.75-.32-.23-.47-.61-.4-1,.22-1.17.32-2.37.32-3.56,0-8.67-5.54-15.72-12.36-15.72-6.29,0-11.57,5.99-12.28,13.94-.03.36-.26.68-.59.83-4.54,2.01-7.48,6.71-7.48,11.97,0,7.14,5.42,12.95,12.09,12.95.21,0,.43,0,.65-.02l11.95-.2Z"/><line class="cls-2" x1="22.08" y1="92.66" x2="22.08" y2="73.11"/><path class="cls-2" d="m68.98,76.08c-1.26,1.41-2.85,2.56-4.74,3.42-1.75.81-3.78,1.39-6.03,1.7"/><path class="cls-2" d="m41.99,54.1c-.16-1.22-.24-2.56-.24-4.08,0-7.41,5.4-13.43,12.03-13.43s12.03,6.03,12.03,13.43c0,1.49-.08,2.85-.24,4.08,2.9,1.96,5.05,4.64,6.1,7.6"/><path class="cls-2" d="m53.78,81.5h0c-1.56,0-3.05-.1-4.43-.3-2.75-.39-5.15-1.15-7.16-2.27-1.57-.87-2.89-1.96-3.94-3.24"/><line class="cls-2" x1="54.78" y1="74.6" x2="54.78" y2="92.6"/><path class="cls-2" d="m28.52,38.96c1.05-9.55,7.35-16.92,15.17-17.99-.13-.89-.2-1.79-.2-2.69,0-9.39,7.04-17.02,15.69-17.02s15.16,7.07,15.66,15.96c.59-.1,1.19-.14,1.79-.14,6.29,0,11.4,5.18,11.4,11.54,0,.82-.08,1.64-.25,2.43"/><path class="cls-2" d="m90.69,33.4c3.72,3.33,5.86,8.25,5.86,13.5,0,8.7-5.95,16.14-13.84,17.3-.05,0-.1.01-.14.01h0"/><path class="cls-2" d="m80.86,37.59c0,2.93-1.84,5.61-4.58,6.66-.12.04-.24.07-.36.07h0"/><polyline class="cls-2" points="80.31 98.5 80.31 98.5 26.07 98.5"/><polyline class="cls-2" points="90.92 98.5 90.92 98.5 85.76 98.5"/><polyline class="cls-2" points="20.61 98.5 20.61 98.5 15.45 98.5"/></svg>