<?xml version="1.0" encoding="UTF-8"?><svg id="Layer_1" xmlns="http://www.w3.org/2000/svg" viewBox="0 0 100 100"><defs><style>.cls-1{fill:#6f7c84;}.cls-1,.cls-2,.cls-3{stroke:#333f48;stroke-miterlimit:10;}.cls-1,.cls-3{fill-rule:evenodd;}.cls-2,.cls-3{fill:none;}</style></defs><line class="cls-2" x1="7.55" y1="44.28" x2="31.96" y2="44.28"/><polyline class="cls-3" points="57.36 77.15 57.36 62.49 25.67 62.49 25.67 53.66 31.78 48.82 31.78 40.23 7.55 40.23 7.55 48.82 13.66 53.66 13.66 62.49 4.13 62.49 4.13 77.15"/><line class="cls-2" x1="16.84" y1="40.23" x2="16.84" y2="37.19"/><line class="cls-2" x1="22.19" y1="37.19" x2="11.49" y2="37.19"/><line class="cls-2" x1="24.87" y1="40.23" x2="24.87" y2="20.92"/><line class="cls-2" x1=".58" y1="79.08" x2="64.13" y2="79.08"/><polyline class="cls-3" points="57.36 69.79 15.77 69.79 15.77 77.13"/><path class="cls-1" d="m44.62,47.3l.95,2.85,15,.59,29.05-9.7c3.31-1.14,6.13-2.01,8.69-4.64.81-.89,1.29-1.84,1.04-2.63-.55-1.76-3.7-1.64-5.18-1.63-.89,0-1.53-.23-2.36-.3-1.51-.12-3.49.5-4.94.98l-31.39,10.47c-.84.19-1.65.1-2.45-.35l-7.4-4.37c-1.8-.99-2.74-1.14-3.93-.88l-1.86.52c-.34.14-.36.41-.08.81l4.07,6.81"/><path class="cls-3" d="m94.45,32.14c-.13,1.08-.67,1.08-1.13,1.24l-5.2,1.74"/><line class="cls-2" x1="81.3" y1="41.1" x2="64.54" y2="46.7"/><line class="cls-2" x1="92.34" y1="42.67" x2="93.72" y2="42.21"/><line class="cls-2" x1="72.75" y1="49.22" x2="74.14" y2="48.75"/><line class="cls-2" x1="70.7" y1="49.9" x2="72.08" y2="49.44"/><line class="cls-2" x1="68.66" y1="50.58" x2="70.04" y2="50.12"/><line class="cls-2" x1="50.7" y1="45.23" x2="41.88" y2="48.17"/><line class="cls-2" x1="25.67" y1="62.49" x2="18.37" y2="62.49"/><line class="cls-2" x1="65.79" y1="79.08" x2="77.34" y2="79.08"/></svg>