<?xml version="1.0" encoding="UTF-8"?><svg id="Layer_1" xmlns="http://www.w3.org/2000/svg" viewBox="0 0 100 100"><defs><style>.cls-1{fill:#6f7c84;}.cls-1,.cls-2{stroke:#333f48;stroke-miterlimit:10;}.cls-2{fill:none;}</style></defs><path class="cls-1" d="m27.2,86.1c14.46-6.64.44-42.59-5.34-42.59s-19.9,36.23-5.17,42.67l10.51-.07Z"/><line class="cls-2" x1="21.86" y1="75.56" x2="21.86" y2="98.5"/><polyline class="cls-2" points="45.33 99.22 45.33 1.26 79.6 1.26 79.6 99.22"/><polyline class="cls-2" points="33.53 52.63 33.53 11.53 45.33 1.26"/><line class="cls-2" x1="33.53" y1="98.82" x2="33.53" y2="92.89"/><line class="cls-2" x1="52.08" y1="15.9" x2="73.91" y2="15.9"/><line class="cls-2" x1="52.08" y1="9.78" x2="73.91" y2="9.78"/><line class="cls-2" x1="52.08" y1="22.02" x2="73.91" y2="22.02"/><line class="cls-2" x1="52.08" y1="28.15" x2="73.91" y2="28.15"/><line class="cls-2" x1="52.08" y1="34.27" x2="73.91" y2="34.27"/><line class="cls-2" x1="52.08" y1="40.39" x2="73.91" y2="40.39"/><line class="cls-2" x1="52.08" y1="46.51" x2="73.91" y2="46.51"/><line class="cls-2" x1="52.08" y1="52.63" x2="73.91" y2="52.63"/><line class="cls-2" x1="52.08" y1="58.76" x2="73.91" y2="58.76"/><line class="cls-2" x1="52.08" y1="64.88" x2="73.91" y2="64.88"/><line class="cls-2" x1="52.08" y1="71" x2="73.91" y2="71"/><line class="cls-2" x1="52.08" y1="77.12" x2="73.91" y2="77.12"/><line class="cls-2" x1="52.08" y1="83.25" x2="73.91" y2="83.25"/><line class="cls-2" x1="1.02" y1="99.22" x2="98.98" y2="99.22"/></svg>