<?xml version="1.0" encoding="UTF-8"?><svg id="Layer_1" xmlns="http://www.w3.org/2000/svg" viewBox="0 0 100 100"><defs><style>.cls-1{fill:#6f7c84;}.cls-1,.cls-2{stroke:#333f48;stroke-miterlimit:10;}.cls-2{fill:none;}</style></defs><line class="cls-2" x1=".44" y1="76.29" x2="28.6" y2="44.28"/><line class="cls-2" x1="71.41" y1="44.28" x2="99.56" y2="76.29"/><line class="cls-2" x1="44.3" y1="45.18" x2="32.74" y2="77.18"/><line class="cls-2" x1="48.88" y1="30.59" x2="47.1" y2="35.51"/><line class="cls-2" x1="62.48" y1="77.18" x2="50.92" y2="45.18"/><line class="cls-2" x1="24.74" y1="64.67" x2="15.93" y2="77.89"/><line class="cls-2" x1="31.35" y1="54.75" x2="27.42" y2="60.66"/><line class="cls-2" x1="35.02" y1="49.25" x2="32.75" y2="52.66"/><line class="cls-2" x1="37.15" y1="46.05" x2="36.05" y2="47.7"/><line class="cls-2" x1="75.03" y1="63.68" x2="83.84" y2="76.9"/><line class="cls-2" x1="68.42" y1="53.76" x2="72.35" y2="59.66"/><line class="cls-2" x1="64.75" y1="48.26" x2="67.02" y2="51.67"/><line class="cls-2" x1="62.62" y1="45.06" x2="63.72" y2="46.71"/><line class="cls-2" x1="62.48" y1="34.14" x2="53.49" y2="23.91"/><line class="cls-2" x1="46.51" y1="23.91" x2="35.02" y2="36.99"/><polygon class="cls-1" points="83.73 58.58 87.57 58.58 87.57 38.88 10.77 38.88 10.77 58.58 16.12 58.58 16.12 44.14 83.73 44.14 83.73 58.58"/><polyline class="cls-2" points="41.95 28.52 41.95 22.11 57.91 22.11 57.91 28.52"/></svg>