<?xml version="1.0" encoding="UTF-8"?><svg id="Layer_1" xmlns="http://www.w3.org/2000/svg" viewBox="0 0 100 100"><defs><style>.cls-1{fill:#6f7c84;}.cls-1,.cls-2{stroke:#333f48;stroke-miterlimit:10;}.cls-2{fill:none;}</style></defs><path class="cls-2" d="m29.75,35.13v13.62"/><path class="cls-2" d="m8.01,38.9v-3.87"/><path class="cls-2" d="m8.01,48.84v-3.99"/><path class="cls-2" d="m95.5,52.69s.03.02.04.04h0"/><path class="cls-2" d="m2.32,34.78h36.63c3.54,0,6.9,1.65,9.23,4.51l3.91,4.81c.77.94.92,2.28.39,3.4-.49,1.04-1.44,1.66-2.53,1.66H2.32"/><path class="cls-2" d="m10.13,68.35H2.32"/><path class="cls-2" d="m44.48,66.86c-.05.27-.08.55-.08.83,0,2.34,1.9,4.24,4.24,4.24s4.26-1.9,4.26-4.24c0-.32-.04-.65-.11-.96"/><path class="cls-2" d="m56.96,66.86c-.05.27-.08.55-.08.83,0,2.34,1.9,4.24,4.24,4.24s4.24-1.9,4.24-4.24c0-.28-.03-.56-.08-.83"/><path class="cls-2" d="m-2.18,71.93h104.37"/><path class="cls-2" d="m92.85,20.26c0-2.56-2.09-4.65-4.67-4.65-.04,0-.09.01-.13.02-.22.04-.49-.03-.65-.19-.15-.16-.26-.39-.2-.6.22-.84.33-1.68.33-2.51,0-5.38-4.38-9.75-9.76-9.75-4.02,0-7.58,2.41-9.07,6.13-.13.34-.51.5-.85.37-.8-.32-1.56-.48-2.33-.49h-.13c-3.31,0-6.09,2.61-6.33,5.93-.02.2-.12.38-.28.49-.16.11-.37.15-.56.1-1.52-.43-3.04.36-3.56,1.81-.08.22-.26.38-.49.42-.22.04-.46-.03-.62-.2-.27-.3-.6-.56-1.04-.84-.71-.44-1.54-.67-2.39-.67-2.56,0-4.65,2.08-4.65,4.65"/><path class="cls-2" d="m80.64,18.91c-.4-.98-1.34-1.61-2.39-1.61-.29,0-.54.04-.76.11-.2.07-.42.04-.6-.08-.17-.12-.28-.32-.28-.54v-.15c0-1.81-1.47-3.28-3.28-3.28s-3.3,1.47-3.3,3.28c0,.21.03.43.06.63.04.22-.03.44-.19.59-.16.15-.39.22-.6.17-.17-.04-.33-.06-.47-.06-.71,0-1.36.4-1.69,1.04"/><path class="cls-2" d="m34.35,16.01c-.4-.77-1.17-1.21-2.16-.98-.22.05-.44-.01-.6-.17-.16-.15-.23-.38-.19-.6.04-.2.06-.41.06-.63,0-1.81-1.48-3.28-3.3-3.28s-3.28,1.47-3.28,3.28v.15c0,.21-.1.41-.28.54-.17.12-.4.16-.6.08-.21-.07-.47-.11-.76-.11-1.05,0-1.99.63-2.39,1.61"/><path class="cls-1" d="m95.5,52.69c-.12-.15-.3-.23-.49-.23h-15.83c-7.32.28-9.76-1.86-12.09-3.3-2.33-1.44-9.23-10.22-9.23-10.22l-5.22-6.26-4.38-5.25c-.12-.15-.31-.24-.51-.24,18.8,0,36.2,9.29,47.75,25.5Z"/><path class="cls-2" d="m17.94,68.34h22.5c.23,0,.45-.12.57-.33l1.98-3.44h24.05l1.99,3.44c.11.21.33.33.57.33h18.92c5.49,0,8.9-5.04,8.9-9.71,0-2.14-.65-4.17-1.88-5.89h0s-.02-.04-.04-.05"/><line class="cls-2" x1="47.75" y1="27.19" x2="2.32" y2="27.19"/></svg>