<?xml version="1.0" encoding="UTF-8"?>
<svg version="1.1" xmlns="http://www.w3.org/2000/svg" width="150" height="150">
<path d="M0 0 C4.45527331 3.7400847 7.05752648 8.76205664 9.7265625 13.828125 C10.94884903 15.91276092 12.22972967 17.49156292 13.875 19.25 C18.30978329 24.11209314 21.04008826 30.17650502 24 36 C24.79664062 35.59007812 25.59328125 35.18015625 26.4140625 34.7578125 C27.47367187 34.21898437 28.53328125 33.68015625 29.625 33.125 C30.66914062 32.59132812 31.71328125 32.05765625 32.7890625 31.5078125 C38.74147232 28.71264195 43.46973481 27.26271199 50 28 C52.5625 29.9375 52.5625 29.9375 54 33 C54.09602481 37.28110619 53.17624979 41.30759009 52.125 45.4375 C51.96580467 49.97456682 53.45104627 52.49924392 55.67578125 56.375 C59.10793778 63.17856692 59.5668887 70.12896804 60.125 77.625 C60.2502002 79.27520142 60.2502002 79.27520142 60.37792969 80.95874023 C63.49568041 125.11945228 63.49568041 125.11945228 53.0625 140.9375 C48.58626077 145.41373923 44.92813759 146.46814165 38.625 146.5625 C25.04243016 146.50150746 13.5191185 139.56570329 2 133 C1.67 134.65 1.34 136.3 1 138 C-0.5625 138.75 -0.5625 138.75 -3 139 C-12.67667132 134.65537206 -20.75145314 126.59371576 -28 119 C-28.825 118.175 -29.65 117.35 -30.5 116.5 C-31.325 115.675 -32.15 114.85 -33 114 C-33.59167969 113.41992188 -34.18335938 112.83984375 -34.79296875 112.2421875 C-35.41816406 111.62601562 -36.04335938 111.00984375 -36.6875 110.375 C-37.26886719 109.80523437 -37.85023437 109.23546875 -38.44921875 108.6484375 C-41.34186448 105.57363524 -42 104.32078329 -42 100 C-40.68 100 -39.36 100 -38 100 C-38 97.07333081 -38.44288249 94.67933388 -39 91.8125 C-41.33925438 76.80088195 -41.45534135 60.59623024 -37 46 C-36.67805664 44.92927246 -36.67805664 44.92927246 -36.34960938 43.83691406 C-31.97485009 29.46528747 -27.65251986 16.54469763 -14.99609375 7.453125 C-13.13506843 6.0983277 -11.37751712 4.67863926 -9.625 3.1875 C-6.26524615 0.38770513 -4.3804379 -0.79644325 0 0 Z M-4 5 C-4.66 5.66 -5.32 6.32 -6 7 C-3.69 7.66 -1.38 8.32 1 9 C-0.36323743 6.9600281 -0.36323743 6.9600281 -2 5 C-2.66 5 -3.32 5 -4 5 Z M39.0625 34.375 C38.41603516 34.59671875 37.76957031 34.8184375 37.10351562 35.046875 C34.20305937 36.07091978 32.20248072 36.79751928 30 39 C31.33804688 39.39832031 31.33804688 39.39832031 32.703125 39.8046875 C34.45882812 40.33449219 34.45882812 40.33449219 36.25 40.875 C37.41015625 41.22304688 38.5703125 41.57109375 39.765625 41.9296875 C43 43 43 43 47 45 C47.99 41.7 48.98 38.4 50 35 C49.01 34.01 48.02 33.02 47 32 C44.37360234 32 41.54654876 33.49856654 39.0625 34.375 Z M-36 77 C-35 80 -35 80 -35 80 Z M-35 81 C-34.88521587 83.06309376 -34.75773802 85.12548354 -34.625 87.1875 C-34.55539063 88.33605469 -34.48578125 89.48460938 -34.4140625 90.66796875 C-34.02490426 93.79959117 -33.3190149 96.15285809 -32 99 C-30.3516367 97.24755753 -30.3516367 97.24755753 -29 95 C-29.50433774 91.74982347 -30.82520593 88.7833661 -32.0625 85.75 C-32.42472656 84.85796875 -32.78695312 83.9659375 -33.16015625 83.046875 C-33.43730469 82.37140625 -33.71445312 81.6959375 -34 81 C-34.33 81 -34.66 81 -35 81 Z M-26 98 C-27.32 99.65 -28.64 101.3 -30 103 C-15.75030335 115.9683309 -15.75030335 115.9683309 1 125 C0.63648437 124.52691406 0.27296875 124.05382812 -0.1015625 123.56640625 C-3.46024376 119.14844859 -6.60553106 114.64979325 -9.60546875 109.98046875 C-11.95528269 106.64333803 -13.56156944 105.18673894 -17.375 103.5625 C-20.8228535 102.07635625 -23.19871178 100.46173814 -26 98 Z M-32 107 C-32 107.66 -32 108.32 -32 109 C-31.34 108.67 -30.68 108.34 -30 108 C-30.66 107.67 -31.32 107.34 -32 107 Z M-30 109 C-28.70242126 111.87928181 -27.36114043 113.86857707 -25.05859375 116.0234375 C-24.47867676 116.56718018 -23.89875977 117.11092285 -23.30126953 117.67114258 C-22.68622559 118.23341553 -22.07118164 118.79568848 -21.4375 119.375 C-20.49946533 120.24064575 -20.49946533 120.24064575 -19.54248047 121.1237793 C-14.99775133 125.25168417 -10.32557996 128.91454494 -5 132 C-6.25328804 125.6770205 -9.68814662 123.43118699 -14.6875 119.9375 C-15.38294922 119.43412109 -16.07839844 118.93074219 -16.79492188 118.41210938 C-18.8531517 116.92657095 -20.92489307 115.46183828 -23 114 C-24.34052363 113.0439213 -25.68041702 112.08695801 -27.01953125 111.12890625 C-28.00308594 110.42636719 -28.98664062 109.72382812 -30 109 Z " fill="#3D393A" transform="translate(80,1)"/>
<path d="M0 0 C2.24175045 2.03795496 2.31193226 3.29163975 2.4609375 6.328125 C1.8964784 9.51371601 1.0363447 12.59424668 0.1484375 15.703125 C-0.1909082 16.940625 -0.1909082 16.940625 -0.53710938 18.203125 C-1.19218237 20.58177621 -1.86227911 22.95556957 -2.5390625 25.328125 C-2.84336182 26.39788574 -2.84336182 26.39788574 -3.15380859 27.48925781 C-3.61380992 29.10271349 -4.07614055 30.71550486 -4.5390625 32.328125 C-5.59222656 32.35390625 -6.64539063 32.3796875 -7.73046875 32.40625 C-20.62888177 32.85938052 -34.24702423 34.50704605 -45.5390625 41.328125 C-45.8690625 41.988125 -46.1990625 42.648125 -46.5390625 43.328125 C-45.84941406 43.07417969 -45.15976563 42.82023437 -44.44921875 42.55859375 C-12.36196435 30.80647177 -12.36196435 30.80647177 3.61328125 38.16015625 C5.55518108 39.3876997 7.01328165 40.54146113 8.4609375 42.328125 C8.21640626 45.67005192 7.85550193 46.93356057 5.4609375 49.328125 C5.21088364 52.36995393 5.21088364 52.36995393 5.4609375 55.328125 C5.7909375 55.658125 6.1209375 55.988125 6.4609375 56.328125 C6.69822564 62.85354873 6.69822564 62.85354873 5.4609375 65.328125 C5.27333391 70.11201642 5.69036198 74.60834992 6.4609375 79.328125 C5.53861328 79.78251953 5.53861328 79.78251953 4.59765625 80.24609375 C-1.81966736 83.44813273 -1.81966736 83.44813273 -5.5390625 89.328125 C-6.33471344 92.64333727 -6.98393806 95.964724 -7.5390625 99.328125 C-20.22846341 100.5482597 -31.71204209 92.60649174 -41.5390625 85.328125 C-44.2309383 82.8661603 -46.40569993 80.2799131 -48.5390625 77.328125 C-49.17714844 76.47605469 -49.81523438 75.62398438 -50.47265625 74.74609375 C-55.8081317 67.41384077 -55.8081317 67.41384077 -56.5390625 63.328125 C-57.7353125 63.121875 -58.9315625 62.915625 -60.1640625 62.703125 C-64.24747249 61.6768134 -66.61671495 59.95419159 -69.60546875 57.05859375 C-70.5390625 55.328125 -70.5390625 55.328125 -70.41015625 52.9765625 C-65.98901746 39.53471453 -53.10322005 26.48031393 -43.5390625 16.328125 C-42.93964844 15.66425781 -42.34023437 15.00039063 -41.72265625 14.31640625 C-30.03233258 1.8686102 -17.04168777 -8.20783329 0 0 Z " fill="#F5932E" transform="translate(124.5390625,43.671875)"/>
<path d="M0 0 C2.92402335 1.11787307 4.56257981 2.21468269 6.09985352 4.97460938 C7.19655177 7.49823364 8.17654989 10.0420667 9.125 12.625 C9.45886719 13.48996094 9.79273438 14.35492188 10.13671875 15.24609375 C11.12101744 17.82071033 12.0637146 20.40759153 13 23 C13.31163086 23.81823242 13.62326172 24.63646484 13.94433594 25.47949219 C16.74935828 33.16226052 16.74935828 33.16226052 15 37 C12.7421875 39.2109375 12.7421875 39.2109375 9.875 41.375 C-2.72318443 51.2689469 -12.06584907 63.58650596 -20.65161133 77.02539062 C-22.82492861 80.39703626 -25.03803609 83.28767769 -28 86 C-35.24546421 71.50907158 -38.17329498 57.24330281 -33.5 41 C-32.7336166 38.97340164 -31.89486823 36.97323473 -31 35 C-30.58137695 34.06583252 -30.58137695 34.06583252 -30.15429688 33.11279297 C-13.81842105 -2.81052632 -13.81842105 -2.81052632 0 0 Z " fill="#EF6231" transform="translate(79,9)"/>
<path d="M0 0 C7.33454585 5.76285746 8.57198199 15.62173228 9.62890625 24.3203125 C14.7602994 75.20212671 14.7602994 75.20212671 3.0625 92.9375 C-0.76198078 96.76198078 -3.40271484 98.17054143 -8.8125 98.1875 C-10.20891272 98.13966204 -11.60517921 98.08204828 -13 98 C-12.34 97.01 -11.68 96.02 -11 95 C-10.6921614 92.91967031 -10.6921614 92.91967031 -10.625 90.6875 C-10.1744298 86.13747965 -9.14411515 83.46658849 -6 80 C-3.42525884 78.41970953 -0.79052708 77.15143107 2 76 C1.98839844 74.85660156 1.97679687 73.71320313 1.96484375 72.53515625 C1.95546712 71.04427246 1.94636679 69.55338691 1.9375 68.0625 C1.92912109 67.30775391 1.92074219 66.55300781 1.91210938 65.77539062 C1.90347559 63.85005687 1.94775667 61.92464419 2 60 C2.495 59.505 2.495 59.505 3 59 C3.16053815 57.12678052 3.16053815 57.12678052 3.125 55 C3.12757813 54.278125 3.13015625 53.55625 3.1328125 52.8125 C3.19695276 50.97910585 3.19695276 50.97910585 2 50 C1.54130033 45.75702801 2.52184324 44.30420901 5 41 C5.66666667 38.5 5.66666667 38.5 5 36 C1.52240284 32.41702111 -2.43446286 30.79040672 -7 29 C-6.6702085 22.18430901 -5.32874792 15.98269685 -3.5 9.4375 C-3.27417236 8.62748535 -3.04834473 7.8174707 -2.81567383 6.98291016 C-1.1399696 1.1399696 -1.1399696 1.1399696 0 0 Z " fill="#F29535" transform="translate(130,49)"/>
<path d="M0 0 C4.45527331 3.7400847 7.05752648 8.76205664 9.7265625 13.828125 C10.94884903 15.91276092 12.22972967 17.49156292 13.875 19.25 C18.30978329 24.11209314 21.04008826 30.17650502 24 36 C24.99 35.34 25.98 34.68 27 34 C29.6875 33.875 29.6875 33.875 32 34 C32 34.66 32 35.32 32 36 C31.01 36 30.02 36 29 36 C29 36.99 29 37.98 29 39 C27.96875 39.433125 26.9375 39.86625 25.875 40.3125 C3.53030883 51.56380209 -12.78007399 73.97023136 -25 95 C-25.99 94.34 -26.98 93.68 -28 93 C-14.94418623 72.99111507 -14.94418623 72.99111507 -8 65 C-7.15953125 64.02675781 -6.3190625 63.05351563 -5.453125 62.05078125 C0.51338124 55.27908424 6.81919283 49.50019272 14 44 C13.31214915 38.85749601 11.8961368 34.14733401 10.25 29.25 C9.98268066 28.4544873 9.71536133 27.65897461 9.43994141 26.83935547 C5.61026936 15.2541688 5.61026936 15.2541688 -2 6 C-11.99790978 8.55760483 -17.95895596 18.42619879 -23.03955078 26.86962891 C-29.56901338 38.07412439 -34.91178051 49.71059667 -35.31640625 62.83203125 C-35.35830078 64.12431641 -35.40019531 65.41660156 -35.44335938 66.74804688 C-35.48316352 68.10286192 -35.52287591 69.45767967 -35.5625 70.8125 C-35.60573723 72.18686105 -35.64935312 73.56121024 -35.69335938 74.93554688 C-35.7992979 78.29026669 -35.90137189 81.6450586 -36 85 C-36.99 85.495 -36.99 85.495 -38 86 C-38 84.35 -38 82.7 -38 81 C-38.66 81 -39.32 81 -40 81 C-40.63741706 58.16412539 -37.30971127 33.89472935 -23.6875 14.75 C-20.96015486 11.95922823 -18.15637505 9.72327036 -14.99609375 7.453125 C-13.13506843 6.0983277 -11.37751712 4.67863926 -9.625 3.1875 C-6.26524615 0.38770513 -4.3804379 -0.79644325 0 0 Z " fill="#3D2925" transform="translate(80,1)"/>
<path d="M0 0 C2.5625 1.9375 2.5625 1.9375 4 5 C4.47030683 11.01751564 2.23867018 16.45827996 0.11328125 21.9765625 C-3.1121629 30.73618976 -5.39107803 39.81220872 -7 49 C-6.39671875 49.17015625 -5.7934375 49.3403125 -5.171875 49.515625 C3.67707875 52.19885614 3.67707875 52.19885614 6 56 C5.78571429 62.21428571 5.78571429 62.21428571 3 65 C2.7499227 67.54190002 2.7499227 67.54190002 3 70 C3.33 70.33 3.66 70.66 4 71 C4.1328125 72.8125 4.1328125 72.8125 4.125 75 C4.12886719 76.0828125 4.12886719 76.0828125 4.1328125 77.1875 C4 79 4 79 3 80 C2.92680379 82.69654854 2.90757463 85.36691458 2.9375 88.0625 C2.94201172 88.82111328 2.94652344 89.57972656 2.95117188 90.36132812 C2.9629932 92.24091871 2.98092922 94.12046899 3 96 C2.07767578 96.45439453 2.07767578 96.45439453 1.13671875 96.91796875 C-5.2982659 100.1093527 -5.2982659 100.1093527 -9 106 C-9.32977516 108.34099649 -9.56048211 110.65111675 -9.69140625 113.01171875 C-10 115 -10 115 -12 117 C-15.125 117.125 -15.125 117.125 -18 117 C-18.33 116.34 -18.66 115.68 -19 115 C-17.02 115 -15.04 115 -13 115 C-13.061875 114.01 -13.12375 113.02 -13.1875 112 C-13.16456672 106.34694625 -11.64481826 101.64481826 -7.625 97.625 C-5.12930789 96.08004774 -2.73037032 95.05014243 0 94 C-0.08378906 93.01257813 -0.16757813 92.02515625 -0.25390625 91.0078125 C-0.40666016 89.08582031 -0.40666016 89.08582031 -0.5625 87.125 C-0.71912109 85.21074219 -0.71912109 85.21074219 -0.87890625 83.2578125 C-1 80 -1 80 0 78 C0.16669318 74.45828022 0.16669318 74.45828022 0 71 C-0.33 70.67 -0.66 70.34 -1 70 C-1.25 67.125 -1.25 67.125 -1 64 C0 63 1 62 2 61 C2.39491898 58.46285686 2.39491898 58.46285686 1 56 C-8.42303004 49.68300214 -20.00082103 50.05386055 -30.90625 51.34375 C-32.99748482 51.78556017 -34.97565657 52.31683648 -37 53 C-37.71542969 53.24105469 -38.43085937 53.48210937 -39.16796875 53.73046875 C-41.96535025 54.73426503 -44.66784674 55.82943481 -47.3125 57.1875 C-49 58 -49 58 -52 58 C-51.41015625 56.1640625 -51.41015625 56.1640625 -50 54 C-45.51783449 51.8452272 -40.7472915 50.46150241 -36 49 C-35.23171875 48.76023438 -34.4634375 48.52046875 -33.671875 48.2734375 C-26.02404963 46.25609774 -17.86212939 46.34300909 -10 46 C-9.86948242 45.42258057 -9.73896484 44.84516113 -9.60449219 44.25024414 C-8.98708171 41.5208249 -8.3686893 38.79162966 -7.75 36.0625 C-7.52546143 35.0715332 -7.30092285 34.08056641 -7.06958008 33.05957031 C-5.48029401 26.06423974 -3.85514462 19.07835344 -2.16894531 12.10571289 C-1.29806691 8.59201695 -1.29806691 8.59201695 -1 5 C-8.09883934 6.14789743 -14.41658619 8.11450374 -21 11 C-21 10.01 -21 9.02 -21 8 C-20.01 8 -19.02 8 -18 8 C-18 7.34 -18 6.68 -18 6 C-18.66 5.67 -19.32 5.34 -20 5 C-6.71586716 -1.19926199 -6.71586716 -1.19926199 0 0 Z " fill="#3F3025" transform="translate(130,29)"/>
<path d="M0 0 C4 0 4 0 5.89453125 1.73046875 C11.15210758 8.46573456 15.17927366 15.38242685 19 23 C19.99 22.34 20.98 21.68 22 21 C24.6875 20.875 24.6875 20.875 27 21 C27 21.66 27 22.32 27 23 C26.01 23 25.02 23 24 23 C24 23.99 24 24.98 24 26 C22.96875 26.433125 21.9375 26.86625 20.875 27.3125 C-1.46969117 38.56380209 -17.78007399 60.97023136 -30 82 C-30.99 81.34 -31.98 80.68 -33 80 C-19.94418623 59.99111507 -19.94418623 59.99111507 -13 52 C-12.15953125 51.02675781 -11.3190625 50.05351563 -10.453125 49.05078125 C-4.48661876 42.27908424 1.81919283 36.50019272 9 31 C8.32086842 25.75978722 6.78149539 21.02986077 5.0625 16.0625 C3.23743666 10.73828847 1.49584384 5.42695034 0 0 Z " fill="#3C2A23" transform="translate(85,14)"/>
<path d="M0 0 C2.475 0.495 2.475 0.495 5 1 C5.25523438 2.051875 5.25523438 2.051875 5.515625 3.125 C8.47539407 14.71218105 12.4718605 23.63414821 23 30 C22.71125 29.35675781 22.4225 28.71351562 22.125 28.05078125 C19.03240701 20.52332401 18.53728982 14.08457511 19 6 C20.32 6 21.64 6 23 6 C23.14695312 7.35931641 23.14695312 7.35931641 23.296875 8.74609375 C24.39815419 17.71772159 25.66385273 25.42943097 31.8125 32.3125 C34 35 34 35 33.8125 37.375 C33.544375 37.91125 33.27625 38.4475 33 39 C23.28857066 38.64685711 16.50282992 33.34113671 9.92578125 26.4609375 C3.89891835 18.75926685 -0.15961083 9.89587158 0 0 Z " fill="#3C3839" transform="translate(4,61)"/>
<path d="M0 0 C1 2 1 2 0.44799805 3.79272461 C0.15965088 4.50952393 -0.12869629 5.22632324 -0.42578125 5.96484375 C-2.2840819 11.24360218 -2.346195 16.01631303 -2.1875 21.5625 C-2.17396484 22.47580078 -2.16042969 23.38910156 -2.14648438 24.33007812 C-2.11155315 26.55403259 -2.06251586 28.77667952 -2 31 C-8.41334333 31.3283021 -8.41334333 31.3283021 -11.03125 29.86328125 C-11.75828125 29.09564453 -11.75828125 29.09564453 -12.5 28.3125 C-13.0053125 27.81363281 -13.510625 27.31476563 -14.03125 26.80078125 C-15 25 -15 25 -14.88671875 22.65625 C-13.80514518 19.41629393 -12.24863703 17.00135248 -10.3125 14.1875 C-9.59707031 13.14464844 -8.88164063 12.10179688 -8.14453125 11.02734375 C-5.50074979 7.29522967 -2.80501962 3.61252527 0 0 Z " fill="#EC6332" transform="translate(69,74)"/>
<path d="M0 0 C2.5625 1.9375 2.5625 1.9375 4 5 C4.20239449 10.24298113 2.87287818 15.13051673 1 20 C-0.21065165 16.36804504 0.37215185 14.93468371 1.4375 11.3125 C1.72496094 10.31863281 2.01242188 9.32476562 2.30859375 8.30078125 C2.53675781 7.54152344 2.76492187 6.78226563 3 6 C2.34 6 1.68 6 1 6 C0.67 7.98 0.34 9.96 0 12 C-0.68707555 9.50935112 -1 7.62113708 -1 5 C-8.09883934 6.14789743 -14.41658619 8.11450374 -21 11 C-21 10.01 -21 9.02 -21 8 C-20.01 8 -19.02 8 -18 8 C-18 7.34 -18 6.68 -18 6 C-18.66 5.67 -19.32 5.34 -20 5 C-6.71586716 -1.19926199 -6.71586716 -1.19926199 0 0 Z " fill="#4A4748" transform="translate(130,29)"/>
<path d="M0 0 C6.18677804 5.62434367 12.07280634 13.13316703 15 21 C14.7658669 24.43395207 14.44988842 25.55011158 12 28 C11.01 28 10.02 28 9 28 C8.79842285 27.37955811 8.5968457 26.75911621 8.38916016 26.11987305 C7.47250444 23.30751434 6.54883797 20.49750716 5.625 17.6875 C5.14933594 16.22280273 5.14933594 16.22280273 4.6640625 14.72851562 C4.3546875 13.79072266 4.0453125 12.85292969 3.7265625 11.88671875 C3.44377441 11.02264404 3.16098633 10.15856934 2.86962891 9.26831055 C2.00947218 6.77578047 2.00947218 6.77578047 0 4 C0 2.68 0 1.36 0 0 Z " fill="#E8683C" transform="translate(88,14)"/>
<path d="M0 0 C0.66 0 1.32 0 2 0 C2.33 1.32 2.66 2.64 3 4 C3.66 3.01 4.32 2.02 5 1 C5.99 6.28 6.98 11.56 8 17 C8.99 15.68 9.98 14.36 11 13 C11.99 13 12.98 13 14 13 C14.3125 15.8125 14.3125 15.8125 14 19 C11.625 20.9375 11.625 20.9375 9 22 C8.34 21.67 7.68 21.34 7 21 C7 20.01 7 19.02 7 18 C6.34 18 5.68 18 5 18 C4.67 19.32 4.34 20.64 4 22 C1.74231361 14.65896942 0.4302337 7.6700283 0 0 Z " fill="#3A3738" transform="translate(40,82)"/>
<path d="M0 0 C0.495 0.99 0.495 0.99 1 2 C-0.65 2.33 -2.3 2.66 -4 3 C-4 3.33 -4 3.66 -4 4 C-4.90621094 4.04898438 -5.81242187 4.09796875 -6.74609375 4.1484375 C-17.63907461 4.8170014 -27.49891918 6.14809363 -37.3125 11.1875 C-39 12 -39 12 -42 12 C-41.41015625 10.1640625 -41.41015625 10.1640625 -40 8 C-35.51783449 5.8452272 -30.7472915 4.46150241 -26 3 C-25.23171875 2.76023437 -24.4634375 2.52046875 -23.671875 2.2734375 C-16.02404963 0.25609774 -7.86212939 0.34300909 0 0 Z " fill="#4B3524" transform="translate(120,75)"/>
<path d="M0 0 C0 3.79731329 -1.05588849 4.66423708 -3.375 7.625 C-8.92426158 15.01407053 -13.41686685 22.98890865 -18 31 C-19 29 -19 29 -18.25 26.09375 C-14.46672379 15.21683089 -10.15306915 6.21616479 0 0 Z " fill="#EB6F43" transform="translate(65,9)"/>
<path d="M0 0 C4.21889916 3.58658258 6.68398027 7.60431913 8 13 C6.68 13 5.36 13 4 13 C2.5078125 11.43359375 2.5078125 11.43359375 1.125 9.4375 C-0.34358981 7.48581432 -0.34358981 7.48581432 -2 6 C-5.11993606 6.07542341 -5.11993606 6.07542341 -8 7 C-10.375 6.0625 -10.375 6.0625 -12 5 C-4.80095923 -0.87290168 -4.80095923 -0.87290168 0 0 Z " fill="#393536" transform="translate(80,1)"/>
<path d="M0 0 C0.33 0 0.66 0 1 0 C1 10.56 1 21.12 1 32 C0.01 32.495 0.01 32.495 -1 33 C-1 31.35 -1 29.7 -1 28 C-1.66 28 -2.32 28 -3 28 C-2.69430564 23.70781983 -2.37929775 19.41637381 -2.0625 15.125 C-1.97548828 13.90167969 -1.88847656 12.67835937 -1.79882812 11.41796875 C-1.71181641 10.25136719 -1.62480469 9.08476563 -1.53515625 7.8828125 C-1.456604 6.80402832 -1.37805176 5.72524414 -1.29711914 4.61376953 C-1 2 -1 2 0 0 Z " fill="#2C2829" transform="translate(43,54)"/>
<path d="M0 0 C2 3 2 3 1.57421875 5.3046875 C1.28160156 6.15289062 0.98898438 7.00109375 0.6875 7.875 C-0.45003782 11.2412884 -1.36660288 14.50063771 -2 18 C-2.66 17.67 -3.32 17.34 -4 17 C-4.66 24.92 -5.32 32.84 -6 41 C-6.33 41 -6.66 41 -7 41 C-7.41672617 26.52262416 -7.49220066 12.91758735 0 0 Z " fill="#433D3D" transform="translate(47,39)"/>
<path d="M0 0 C0.33 0 0.66 0 1 0 C1 2.64 1 5.28 1 8 C1.61488281 8.17015625 2.22976562 8.3403125 2.86328125 8.515625 C9.54716981 10.51972556 9.54716981 10.51972556 12.0625 13.1875 C12.5265625 14.0846875 12.5265625 14.0846875 13 15 C9.17259543 15 8.29518262 14.85922615 5.1875 13.125 C-2.00455061 9.3835472 -9.01113885 8.54896333 -17 8 C-17 7.67 -17 7.34 -17 7 C-11.72 7 -6.44 7 -1 7 C-0.67 4.69 -0.34 2.38 0 0 Z " fill="#402F23" transform="translate(122,70)"/>
<path d="M0 0 C2.82711727 0.36277169 3.89365198 0.89149044 5.921875 2.9609375 C6.52515625 3.75757812 7.1284375 4.55421875 7.75 5.375 C8.36359375 6.16648437 8.9771875 6.95796875 9.609375 7.7734375 C11 10 11 10 11 13 C8.69 12.67 6.38 12.34 4 12 C4.33 10.68 4.66 9.36 5 8 C4.34 8 3.68 8 3 8 C3 7.01 3 6.02 3 5 C2.34 5 1.68 5 1 5 C0.67 3.35 0.34 1.7 0 0 Z " fill="#333030" transform="translate(27,86)"/>
<path d="M0 0 C0 0.33 0 0.66 0 1 C-0.69867188 1.13277344 -1.39734375 1.26554687 -2.1171875 1.40234375 C-3.02726562 1.57894531 -3.93734375 1.75554688 -4.875 1.9375 C-5.77992187 2.11152344 -6.68484375 2.28554688 -7.6171875 2.46484375 C-9.99956317 2.89963701 -9.99956317 2.89963701 -12 4 C-10.68 4.66 -9.36 5.32 -8 6 C-12.29 7.65 -16.58 9.3 -21 11 C-21 10.01 -21 9.02 -21 8 C-20.01 8 -19.02 8 -18 8 C-18 7.34 -18 6.68 -18 6 C-18.66 5.67 -19.32 5.34 -20 5 C-13.16076141 1.80835533 -7.61554118 -0.73226358 0 0 Z " fill="#524F4F" transform="translate(130,29)"/>
<path d="M0 0 C0.6290625 0.20496094 1.258125 0.40992188 1.90625 0.62109375 C7.30281819 2.31971235 12.36659614 3.47838853 18 4 C18 4.33 18 4.66 18 5 C16.35 5.33 14.7 5.66 13 6 C14.65 6.33 16.3 6.66 18 7 C18 7.33 18 7.66 18 8 C11.33499135 8.59244521 6.13047025 6.48322845 0 4 C0 2.68 0 1.36 0 0 Z " fill="#362F2D" transform="translate(99,139)"/>
<path d="M0 0 C2.30245498 8.4670925 0.31157093 15.74438954 -2 24 C-2.99 23.67 -3.98 23.34 -5 23 C-4.354523 15.09290669 -2.13002861 7.60866033 0 0 Z " fill="#513824" transform="translate(126,50)"/>
<path d="M0 0 C0.66 0 1.32 0 2 0 C2.33 1.32 2.66 2.64 3 4 C3.66 3.01 4.32 2.02 5 1 C5.66 6.28 6.32 11.56 7 17 C4.70986347 13.5647952 4.82157027 12.014669 5 8 C4.34 8 3.68 8 3 8 C3.33 11.63 3.66 15.26 4 19 C1.56181064 15.34271595 1.3283308 12.06712105 0.875 7.8125 C0.78863281 7.06291016 0.70226563 6.31332031 0.61328125 5.54101562 C0.40161618 3.69482588 0.19984536 1.84750656 0 0 Z " fill="#4C494A" transform="translate(40,82)"/>
<path d="M0 0 C2.475 0.495 2.475 0.495 5 1 C5.33 3.97 5.66 6.94 6 10 C5.67 9.34 5.34 8.68 5 8 C4.34 8 3.68 8 3 8 C2.67 9.32 2.34 10.64 2 12 C0.40861915 7.82262526 -0.21278058 4.46839215 0 0 Z " fill="#454243" transform="translate(4,61)"/>
<path d="M0 0 C0.33 0.66 0.66 1.32 1 2 C-0.65 2.33 -2.3 2.66 -4 3 C-4 3.33 -4 3.66 -4 4 C-9.61 4 -15.22 4 -21 4 C-21 3.34 -21 2.68 -21 2 C-18.26750659 1.24722485 -15.71899317 0.83358297 -12.890625 0.68359375 C-12.13652344 0.64169922 -11.38242188 0.59980469 -10.60546875 0.55664062 C-9.82816406 0.51732422 -9.05085938 0.47800781 -8.25 0.4375 C-7.45722656 0.39431641 -6.66445312 0.35113281 -5.84765625 0.30664062 C-3.89862185 0.20097009 -1.94933252 0.10002034 0 0 Z " fill="#573C25" transform="translate(120,75)"/>
<path d="M0 0 C0.66 0.99 1.32 1.98 2 3 C-0.31 3 -2.62 3 -5 3 C-4.01 3.66 -3.02 4.32 -2 5 C-7.41538462 7.21538462 -7.41538462 7.21538462 -10.375 6.125 C-10.91125 5.75375 -11.4475 5.3825 -12 5 C-5.22988506 -0.52298851 -5.22988506 -0.52298851 0 0 Z " fill="#4A4748" transform="translate(80,1)"/>
<path d="M0 0 C0.66 0 1.32 0 2 0 C1.25 6.75 1.25 6.75 -1 9 C-1.33 9.680625 -1.66 10.36125 -2 11.0625 C-3 13 -3 13 -5 14 C-5.1875 11.1875 -5.1875 11.1875 -5 8 C-3.625 6.4375 -3.625 6.4375 -2 5 C-0.80972016 2.40084462 -0.80972016 2.40084462 0 0 Z " fill="#4A3524" transform="translate(134,85)"/>
<path d="M0 0 C0.99 0 1.98 0 3 0 C3.70365602 1.5552912 4.38729378 3.11964827 5.0625 4.6875 C5.44535156 5.55761719 5.82820313 6.42773438 6.22265625 7.32421875 C7.0935848 10.32213864 6.85006226 12.03280153 6 15 C4.19969878 12.29954818 3.06622934 9.93322119 1.875 6.9375 C1.52179688 6.05964844 1.16859375 5.18179687 0.8046875 4.27734375 C0 2 0 2 0 0 Z " fill="#392723" transform="translate(85,14)"/>
<path d="M0 0 C1.64826111 2.96687001 2.44271087 5.65626525 3 9 C2.01 9 1.02 9 0 9 C0.33 10.65 0.66 12.3 1 14 C-2.57011026 10.267612 -3.10913442 5.9050011 -4 1 C-3.34 1 -2.68 1 -2 1 C-1.67 2.65 -1.34 4.3 -1 6 C-0.67 4.02 -0.34 2.04 0 0 Z " fill="#4E4B4C" transform="translate(27,77)"/>
<path d="M0 0 C0.33 0 0.66 0 1 0 C1 2.97 1 5.94 1 9 C-4.94 8.67 -10.88 8.34 -17 8 C-17 7.67 -17 7.34 -17 7 C-11.72 7 -6.44 7 -1 7 C-0.67 4.69 -0.34 2.38 0 0 Z " fill="#292220" transform="translate(122,70)"/>
<path d="M0 0 C1.2065625 0.0309375 1.2065625 0.0309375 2.4375 0.0625 C2.4375 0.7225 2.4375 1.3825 2.4375 2.0625 C1.4475 2.0625 0.4575 2.0625 -0.5625 2.0625 C-0.5625 3.0525 -0.5625 4.0425 -0.5625 5.0625 C-3.27129335 6.41689668 -5.57183268 6.12751451 -8.5625 6.0625 C-2.5625 0.0625 -2.5625 0.0625 0 0 Z " fill="#3A3333" transform="translate(109.5625,34.9375)"/>
<path d="M0 0 C0.66 0 1.32 0 2 0 C2.99 3.3 3.98 6.6 5 10 C4.34 10 3.68 10 3 10 C2.67 10.66 2.34 11.32 2 12 C0.70756464 7.8803623 -0.26252625 4.33168317 0 0 Z " fill="#4B2D24" transform="translate(91,27)"/>
<path d="M0 0 C0.99 0.33 1.98 0.66 3 1 C-2.445 5.455 -2.445 5.455 -8 10 C-8 7 -8 7 -5.6875 4.4375 C-3 2 -3 2 0 0 Z " fill="#E3842D" transform="translate(92,44)"/>
<path d="M0 0 C-0.99 1.485 -0.99 1.485 -2 3 C-4.6015625 3.51171875 -4.6015625 3.51171875 -7.625 3.6875 C-9.12933594 3.78611328 -9.12933594 3.78611328 -10.6640625 3.88671875 C-11.82035156 3.94279297 -11.82035156 3.94279297 -13 4 C-9.09650503 -0.27525639 -5.61326496 -0.10591066 0 0 Z " fill="#282425" transform="translate(130,30)"/>
<path d="M0 0 C0.79921875 0.01804688 1.5984375 0.03609375 2.421875 0.0546875 C3.02515625 0.07789063 3.6284375 0.10109375 4.25 0.125 C4.25 0.455 4.25 0.785 4.25 1.125 C2.6 1.455 0.95 1.785 -0.75 2.125 C0.9 2.455 2.55 2.785 4.25 3.125 C4.25 3.455 4.25 3.785 4.25 4.125 C-0.57360189 4.31794408 -4.24646738 3.88247614 -8.75 2.125 C-5.68753253 0.34090198 -3.52920727 -0.10380021 0 0 Z " fill="#53463E" transform="translate(112.75,142.875)"/>
<path d="M0 0 C-2.96178773 1.67110042 -5.37071192 2.32682752 -8.75 2.625 C-9.54921875 2.69976562 -10.3484375 2.77453125 -11.171875 2.8515625 C-11.77515625 2.90054688 -12.3784375 2.94953125 -13 3 C-8.55436055 -1.64771397 -6.14660763 -0.89224949 0 0 Z " fill="#3C2D23" transform="translate(102,79)"/>
<path d="M0 0 C0 0.99 0 1.98 0 3 C-1.96722008 4.38123963 -3.96868328 5.71488126 -6 7 C-6.33 7.66 -6.66 8.32 -7 9 C-7.66 9 -8.32 9 -9 9 C-7.48328036 4.44984107 -3.83108947 2.49942736 0 0 Z " fill="#DF7A57" transform="translate(65,9)"/>
<path d="M0 0 C0.33 0 0.66 0 1 0 C1.04254356 1.99954746 1.04080783 4.00041636 1 6 C0 7 0 7 -3.0625 7.0625 C-4.031875 7.041875 -5.00125 7.02125 -6 7 C-6.33 6.34 -6.66 5.68 -7 5 C-5.02 4.67 -3.04 4.34 -1 4 C-0.67 2.68 -0.34 1.36 0 0 Z " fill="#2A2322" transform="translate(118,139)"/>
<path d="M0 0 C0.66 0 1.32 0 2 0 C0.8141763 3.37503669 -0.27573689 5.64722731 -3 8 C-3.33 6.68 -3.66 5.36 -4 4 C-3.34 4 -2.68 4 -2 4 C-1.34 2.68 -0.68 1.36 0 0 Z " fill="#E05E31" transform="translate(60,14)"/>
<path d="M0 0 C0.66 0.99 1.32 1.98 2 3 C1.67 3.99 1.34 4.98 1 6 C-1.0625 6.6875 -1.0625 6.6875 -3 7 C-1.125 1.125 -1.125 1.125 0 0 Z " fill="#4D3C38" transform="translate(47,39)"/>
<path d="M0 0 C2.475 0.495 2.475 0.495 5 1 C5 1.99 5 2.98 5 4 C4.01 4 3.02 4 2 4 C1.34 2.68 0.68 1.36 0 0 Z " fill="#2E2A2A" transform="translate(83,130)"/>
<path d="M0 0 C0.309375 0.639375 0.61875 1.27875 0.9375 1.9375 C1.8345163 3.93610821 1.8345163 3.93610821 3 5 C3.04092937 7.33297433 3.04241723 9.66705225 3 12 C0.79680323 7.59360646 -0.10924981 5.02549129 0 0 Z " fill="#282220" transform="translate(130,94)"/>
<path d="M0 0 C2.64 0.33 5.28 0.66 8 1 C4.5647952 3.29013653 3.014669 3.17842973 -1 3 C-0.67 2.01 -0.34 1.02 0 0 Z " fill="#3A3637" transform="translate(114,33)"/>
<path d="M0 0 C0.66 0.66 1.32 1.32 2 2 C1.625 4.625 1.625 4.625 1 7 C0.67 6.34 0.34 5.68 0 5 C-0.99 5.33 -1.98 5.66 -3 6 C-1.125 1.125 -1.125 1.125 0 0 Z " fill="#EC7046" transform="translate(55,18)"/>
</svg>
